# xmcd
#
# Track frame offsets: 
#        150
#        27009
#        54312
#        84853
#        113800
#        153196
#        184930
#
# Disc length: 2946 seconds
#
# Revision: 0
# Processed by: cddbd v1.5.2PL0 Copyright (c) Steve Scherf et al.
# Submitted via: ExactAudioCopyFreeDBPlugin 1.0
#
DISCID=450b8007
DTITLE=Devin Townsend Project - Ocean Machine: Live at the Ancient Rom
DTITLE=an Theatre Plovdiv - CD I
DYEAR=2018
DGENRE=
TTITLE0=Truth
TTITLE1=Stormbending
TTITLE2=Om
TTITLE3=Failure
TTITLE4=By Your Command
TTITLE5=Gaia
TTITLE6=Deadhead
EXTD=
EXTT0=
EXTT1=
EXTT2=
EXTT3=
EXTT4=
EXTT5=
EXTT6=
PLAYORDER=
